<?xml version="1.0" encoding="iso-8859-1"?>
<!-- Generator: Adobe Illustrator 16.0.0, SVG Export Plug-In . SVG Version: 6.00 Build 0)  -->
<!DOCTYPE svg PUBLIC "-//W3C//DTD SVG 1.1//EN" "http://www.w3.org/Graphics/SVG/1.1/DTD/svg11.dtd">
<svg version="1.1" id="&#x30EC;&#x30A4;&#x30E4;&#x30FC;_1"
	 xmlns="http://www.w3.org/2000/svg" xmlns:xlink="http://www.w3.org/1999/xlink" x="0px" y="0px" width="496.063px"
	 height="651.969px" viewBox="0 0 496.063 651.969" style="enable-background:new 0 0 496.063 651.969;" xml:space="preserve">
<path style="fill:#FFFFFF;" d="M493.929,199.016l-58.534-25.33c-1.788-0.774-3.886,0.056-4.659,1.845l-193.07,446.16
	c-0.774,1.787,0.056,3.885,1.845,4.658l58.534,25.33c1.789,0.773,3.885-0.057,4.659-1.844l193.069-446.16
	C496.547,201.887,495.717,199.79,493.929,199.016z M248.032,354.331c0-37.697-12.892-66.797-32.796-87.306
	c-0.689-0.712-0.689-1.843,0-2.554c19.904-20.509,32.796-49.567,32.796-87.306s0-15.432,0-53.149C248.032-41.339,0-41.339,0,124.016
	c0,37.718,0,15.111,0,53.149s12.892,66.797,32.796,87.306c0.69,0.711,0.69,1.842,0,2.554C12.892,287.534,0,316.634,0,354.331
	c0,37.738,0,15.432,0,53.149c0,165.354,248.032,165.354,248.032,0C248.032,369.763,248.032,392.37,248.032,354.331z M70.866,407.481
	c0-16.164,0-36.986,0-53.15c0-70.866,106.299-70.866,106.299,0c0,16.164,0,36.986,0,53.15
	C177.166,478.347,70.866,478.347,70.866,407.481z M70.867,177.165c0-16.164,0-36.985,0-53.149c0-70.866,106.299-70.866,106.299,0
	c0,16.164,0,36.985,0,53.149C177.166,248.031,70.867,248.031,70.867,177.165z"/>
</svg>
