<?xml version="1.0" encoding="iso-8859-1"?>
<!-- Generator: Adobe Illustrator 16.0.0, SVG Export Plug-In . SVG Version: 6.00 Build 0)  -->
<!DOCTYPE svg PUBLIC "-//W3C//DTD SVG 1.1//EN" "http://www.w3.org/Graphics/SVG/1.1/DTD/svg11.dtd">
<svg version="1.1" id="aiiima_logo" xmlns="http://www.w3.org/2000/svg" xmlns:xlink="http://www.w3.org/1999/xlink" x="0px"
	 y="0px" width="152.55px" height="47.785px" viewBox="0 0 152.55 47.785" style="enable-background:new 0 0 152.55 47.785;"
	 xml:space="preserve">
<g>
	<path style="fill:#FFFFFF;" d="M110.275,10.002c-2.829,0-5.589,1.358-7.574,3.465c-1.242-2.106-3.523-3.465-6.352-3.465
		c-1.906,0-3.781,0.617-5.408,1.663l0.053-0.301c0.072-0.411-0.21-0.747-0.627-0.747h-2.179c-0.417,0-0.817,0.336-0.89,0.747
		L82.56,38.24c-0.509,2.886-3.218,5.233-6.038,5.233c-3.09,0-4.701-2.348-4.192-5.233l0,0l4.739-26.875
		c0.072-0.411-0.209-0.747-0.627-0.747h-2.179c-0.417,0-0.818,0.336-0.89,0.747L68.633,38.24c-0.509,2.886-3.218,5.233-6.038,5.233
		c-3.09,0-4.701-2.348-4.192-5.233l0,0l4.739-26.875c0.072-0.411-0.21-0.747-0.626-0.747h-2.179c-0.417,0-0.817,0.336-0.89,0.747
		L54.707,38.24c-0.509,2.886-3.218,5.233-6.038,5.233c-3.09,0-4.701-2.348-4.192-5.233l0,0l4.739-26.875
		c0.072-0.411-0.209-0.747-0.626-0.747H46.41c-0.417,0-0.817,0.336-0.89,0.747L40.781,38.24c-0.509,2.886-3.217,5.233-6.038,5.233
		c-3.09,0-4.701-2.348-4.192-5.233l0,0l1.487-8.434l0.535-3.036c0-0.001,0-0.003,0.001-0.004l2.715-15.402
		c0.073-0.411-0.209-0.747-0.626-0.747h-2.179c-0.417,0-0.817,0.336-0.89,0.747l-0.819,4.645c-0.22-0.357-0.457-0.704-0.709-1.038
		c-1.174-1.551-2.646-2.771-4.374-3.626c-1.801-0.891-3.799-1.343-5.936-1.343c-2.138,0-4.294,0.452-6.41,1.343
		c-2.029,0.855-3.931,2.075-5.652,3.626c-1.711,1.542-3.158,3.334-4.298,5.324c-1.178,2.056-1.976,4.235-2.371,6.475l-0.749,4.247
		c-0.395,2.239-0.365,4.417,0.087,6.474c0.438,1.99,1.252,3.782,2.42,5.324c1.174,1.551,2.646,2.771,4.374,3.626
		c1.801,0.892,3.798,1.343,5.936,1.343c2.137,0,4.294-0.452,6.41-1.343c2.03-0.855,4.123-2.02,5.844-3.571
		c0.544-0.491,1.042-1.011,1.504-1.558c0.637,3.415,3.447,5.856,7.24,5.856c2.829,0,5.589-1.358,7.574-3.465
		c1.241,2.106,3.523,3.465,6.352,3.465c2.829,0,5.589-1.358,7.574-3.465c1.242,2.106,3.523,3.465,6.352,3.465
		c2.829,0,5.589-1.358,7.574-3.465c1.242,2.106,3.523,3.465,6.352,3.465c4.858,0,9.517-4.006,10.385-8.93l3.405-19.308l0,0
		c0.508-2.886,3.217-5.234,6.038-5.234c3.09,0,4.701,2.348,4.192,5.234l-4.847,27.491c-0.073,0.41,0.209,0.747,0.626,0.747h2.179
		c0.417,0,0.817-0.336,0.89-0.747l4.716-26.744v0l0.132-0.747c0.508-2.886,3.217-5.234,6.038-5.234c3.09,0,4.701,2.348,4.192,5.234
		l-4.847,27.491c-0.072,0.41,0.209,0.747,0.626,0.747h2.179c0.417,0,0.818-0.336,0.891-0.747l4.847-27.491
		C118.38,14.008,115.134,10.002,110.275,10.002z"/>
	<path d="M28.877,26.768l-0.536,3.038l-0.213,1.211c-0.617,3.499-2.475,6.793-5.23,9.276c-2.716,2.448-5.968,3.796-9.154,3.796
		c-3.187,0-5.962-1.348-7.816-3.796c-1.879-2.483-2.575-5.777-1.958-9.276l0.649-3.682c0.934-3.844,2.557-6.88,5.619-9.795
		c2.352-2.239,5.199-3.786,8.922-3.786c3.187,0,5.905,1.347,7.758,3.795C28.798,20.032,29.494,22.645,28.877,26.768z"/>
	<path style="fill:#FFFFFF;" d="M47.533,4.247h2.179c0.417,0,0.817-0.336,0.89-0.747l0.485-2.753C51.16,0.336,50.878,0,50.461,0
		h-2.179c-0.417,0-0.818,0.336-0.89,0.747L46.906,3.5C46.834,3.911,47.116,4.247,47.533,4.247z"/>
	<path style="fill:#FFFFFF;" d="M61.459,4.247h2.179c0.417,0,0.817-0.336,0.89-0.747l0.486-2.753C65.086,0.336,64.804,0,64.387,0
		h-2.179c-0.417,0-0.818,0.336-0.89,0.747L60.833,3.5C60.76,3.911,61.042,4.247,61.459,4.247z"/>
	<path style="fill:#FFFFFF;" d="M75.385,4.247h2.179c0.417,0,0.818-0.336,0.89-0.747l0.486-2.753C79.012,0.336,78.73,0,78.313,0
		h-2.179c-0.417,0-0.817,0.336-0.89,0.747L74.758,3.5C74.687,3.911,74.968,4.247,75.385,4.247z"/>
	<path style="fill:#FFFFFF;" d="M149.648,27.759l0.174-0.989c0,0,0,0,0-0.001l2.716-15.405c0.073-0.411-0.209-0.747-0.626-0.747
		h-2.179c-0.417,0-0.818,0.336-0.89,0.747l-0.819,4.645c-0.22-0.357-0.457-0.704-0.709-1.038c-1.175-1.551-2.646-2.771-4.375-3.626
		c-1.801-0.891-3.798-1.343-5.936-1.343s-4.294,0.452-6.41,1.343c-2.029,0.855-3.932,2.075-5.652,3.626
		c-1.712,1.542-3.158,3.334-4.298,5.324c-1.178,2.056-1.976,4.235-2.371,6.475l-0.749,4.247c-0.395,2.239-0.366,4.417,0.087,6.474
		c0.438,1.99,1.252,3.782,2.42,5.324c1.175,1.551,2.646,2.771,4.375,3.626c1.801,0.892,3.798,1.343,5.936,1.343
		s4.294-0.452,6.41-1.343c2.03-0.855,4.123-2.02,5.844-3.571c0.544-0.491,1.042-1.012,1.504-1.558
		c0.594,3.184,3.079,5.522,6.488,5.822c0,0,0.001,0,0.001,0c0.417-0.001,0.816-0.336,0.889-0.747l0.066-0.377l0.249-1.413
		l0.077-0.438c0.052-0.296-0.123-0.666-0.385-0.707c-0.082-0.008-0.164-0.021-0.244-0.032c-2.597-0.351-3.909-2.542-3.442-5.184
		L149.648,27.759z"/>
	<path d="M146.126,26.768l-0.536,3.038l-0.213,1.211c-0.617,3.499-2.474,6.793-5.229,9.276c-2.717,2.448-5.967,3.796-9.154,3.796
		c-3.187,0-5.962-1.348-7.816-3.796c-1.879-2.483-2.575-5.777-1.958-9.276l0.649-3.682c0.934-3.844,2.557-6.88,5.619-9.795
		c2.351-2.239,5.199-3.786,8.922-3.786c3.187,0,5.905,1.347,7.758,3.795C146.047,20.032,146.743,22.645,146.126,26.768z"/>
</g>
</svg>
