<?xml version="1.0" encoding="iso-8859-1"?>
<!-- Generator: Adobe Illustrator 16.0.0, SVG Export Plug-In . SVG Version: 6.00 Build 0)  -->
<!DOCTYPE svg PUBLIC "-//W3C//DTD SVG 1.1//EN" "http://www.w3.org/Graphics/SVG/1.1/DTD/svg11.dtd">
<svg version="1.1" id="&#x30EC;&#x30A4;&#x30E4;&#x30FC;_1"
	 xmlns="http://www.w3.org/2000/svg" xmlns:xlink="http://www.w3.org/1999/xlink" x="0px" y="0px" width="500px" height="500px"
	 viewBox="0 0 500 500" style="enable-background:new 0 0 500 500;" xml:space="preserve">
<rect x="-0.001" style="fill:none;" width="500" height="500"/>
<path style="fill-rule:evenodd;clip-rule:evenodd;fill:#FFFFFF;" d="M279.749,37.5v76.8c0,8.8-1.6,15.7-4.8,20.7
	c-4.8,7.5-13.401,11.25-25.801,11.25c-9.7,0-17.25-2.75-22.65-8.25c-4.5-4.5-6.75-10.65-6.75-18.45c0-1.8,0.05-3.25,0.15-4.35
	l13.05-1.5c-0.1,0.9-0.15,2.05-0.15,3.45c0,6.1,1.3,10.45,3.9,13.05c3,3,7.4,4.5,13.2,4.5c6.3,0,10.8-1.95,13.5-5.85
	c2.1-3.1,3.15-7.55,3.15-13.35v-78H279.749L279.749,37.5z M309.949,312h-13.2V205.5h59.25v11.55h-46.05v34.5h37.35v11.55h-37.35V312
	L309.949,312z M249.949,470h-14.7l-6.45-23.1h-37.95l-6.6,23.1h-13.95l33.3-106.5h12.6L249.949,470L249.949,470z M225.349,435.2
	l-10.05-35.101c-3-10.5-4.8-17.3-5.4-20.399h-0.3c-0.7,3.7-2.45,10.55-5.25,20.55l-10.2,34.95H225.349L225.349,435.2z
	 M225.349,435.2"/>
</svg>
